<?xml version="1.0" encoding="UTF-8" standalone="no"?>
<svg
   viewBox="0 0 50 50"
   fill="none"
   version="1.1"
   id="svg33"
   sodipodi:docname="cid-logo.svg"
   inkscape:version="1.2.1 (0f2f062aeb, 2022-09-21, custom)"
   xmlns:inkscape="http://www.inkscape.org/namespaces/inkscape"
   xmlns:sodipodi="http://sodipodi.sourceforge.net/DTD/sodipodi-0.dtd"
   xmlns="http://www.w3.org/2000/svg"
   xmlns:svg="http://www.w3.org/2000/svg">
  <sodipodi:namedview
     id="namedview35"
     pagecolor="#505050"
     bordercolor="#eeeeee"
     borderopacity="1"
     inkscape:showpageshadow="0"
     inkscape:pageopacity="0"
     inkscape:pagecheckerboard="0"
     inkscape:deskcolor="#505050"
     showgrid="false"
     showguides="true"
     inkscape:zoom="12.646323"
     inkscape:cx="14.510147"
     inkscape:cy="32.02512"
     inkscape:window-width="1920"
     inkscape:window-height="1144"
     inkscape:window-x="0"
     inkscape:window-y="0"
     inkscape:window-maximized="1"
     inkscape:current-layer="g26" />
  <g
     clip-path="url(#clip0_901_30842)"
     id="g26">
    <path
       d="M 43.8634,30.2245 50,13.3636 43.8634,11.1399 V 6.13126 H 30.0886 L 13.3427,0 11.1819,6.09888 H 6.10415 V 20.0453 L 0,36.7012 6.05013,38.8601 v 5.0518 H 19.9222 L 36.6573,50 38.8181,43.9119 h 4.9913 z M 36.0091,48.5751 1.43691,35.978 14.0341,1.43567 48.6171,14.0328 Z"
       fill="#292929"
       id="path18"
       style="display:none;stroke:none;stroke-width:0.2;stroke-linecap:round;stroke-linejoin:round;stroke-dasharray:none;stroke-opacity:1" />
    <g
       id="path24"
       inkscape:label="CID">
      <path
         style="color:#000000;display:inline;fill:#292929;stroke-width:0.2;stroke-linecap:round;stroke-linejoin:round"
         d="m 42.0498,19.2252 c -0.382,-0.6632 -1.0049,-1.1541 -1.7394,-1.3709 -0.9,-0.2263 -1.8275,-0.3244 -2.7549,-0.2914 h -5.5208 l -5.4019,14.8855 h 5.6504 c 0.9354,0.0203 1.8692,-0.085 2.7766,-0.313 0.9154,-0.246 1.7816,-0.6476 2.5605,-1.1874 0.988,-0.7296 1.8462,-1.62 2.5389,-2.6338 0.6792,-0.9755 1.2209,-2.0398 1.6097,-3.1628 0.4534,-1.1189 0.7234,-2.3035 0.7995,-3.5082 0.0548,-0.8385 -0.1248,-1.6756 -0.5186,-2.418 z m -3.3059,5.7751 c -0.3266,0.9673 -0.7692,1.8915 -1.3181,2.7525 -0.3366,0.5412 -0.7729,1.0137 -1.2856,1.3925 -0.4362,0.2961 -0.9292,0.4982 -1.4477,0.5937 -0.6151,0.1227 -1.2423,0.1734 -1.8691,0.1511 H 30.587 l 3.5869,-9.8553 h 1.3504 c 0.8026,-0.0363 1.6068,0.0144 2.3985,0.1511 0.4385,0.0828 0.8266,0.3349 1.0804,0.7017 0.2858,0.4205 0.4052,0.9321 0.3349,1.4356 -0.0656,0.9167 -0.2658,1.8187 -0.5942,2.6771 z"
         id="path1696" />
      <path
         style="color:#000000;fill:#292929;stroke-width:0.2;stroke-linecap:round;stroke-linejoin:round"
         d="m 26.1989,17.5625 -5.4235,14.8856 h 3.0251 l 5.4127,-14.8856 z"
         id="path1702" />
      <path
         style="color:#000000;fill:#292929;stroke-width:0.202;stroke-linecap:round;stroke-linejoin:round;-inkscape-stroke:none"
         d="m 15.2658,29.3716 c -0.6872,0.484 -1.5039,0.751 -2.3445,0.7664 -0.4379,0.0331 -0.876,-0.0627 -1.26,-0.2757 -0.384,-0.2129 -0.6972,-0.5336 -0.9007,-0.9225 -0.3782,-0.7988 -0.2377,-2.1589 0.4429,-4.0155 0.4519,-1.4777 1.2956,-2.8055 2.4417,-3.8429 0.8601,-0.7671 1.9694,-1.1967 3.1223,-1.2089 0.3304,-0.0237 0.662,0.0249 0.9718,0.1423 0.3097,0.1175 0.5901,0.301 0.8216,0.5377 0.2063,0.2533 0.3523,0.5501 0.4272,0.8679 0.0748,0.3179 0.0765,0.6486 0.005,0.9672 l 3.2411,-0.734 c 0.1447,-0.9407 -0.0424,-1.9023 -0.5294,-2.7202 -0.4523,-0.5886 -1.0488,-1.0508 -1.732,-1.342 -0.6831,-0.2912 -1.4299,-0.4015 -2.1682,-0.3204 -2.1216,0.0313 -4.1672,0.7939 -5.7908,2.1589 -1.8691,1.4907 -3.26822,3.4884 -4.02981,5.7535 -0.8499,2.3531 -0.88591,4.2026 -0.10804,5.5483 0.43818,0.6884 1.05911,1.2416 1.79354,1.598 0.73441,0.3564 1.55351,0.502 2.36591,0.4206 1.5429,0.0097 3.0594,-0.4008 4.3864,-1.1874 1.4457,-0.9148 2.6588,-2.1527 3.5436,-3.6162 L 17.3833,26.986 c -0.5158,0.9453 -1.2399,1.761 -2.1175,2.3856 z"
         id="path1708" />
    </g>
    <path
       style="color:#000000;fill:#000000;stroke-linecap:round;stroke-linejoin:round;-inkscape-stroke:none"
       d="m 13.509766,-0.47070313 a 0.5,0.5 0 0 0 -0.0039,0.001953 0.5,0.5 0 0 0 -0.632812,0.296875 0.5,0.5 0 0 0 0.002,0.003906 0.5,0.5 0 0 0 -0.0039,0.001953 L 10.828125,5.5996094 H 6.1035156 a 0.50005,0.50005 0 0 0 -0.5,0.5 V 19.957031 L -0.46875,36.529297 a 0.50005,0.50005 0 0 0 0.30078125,0.642578 l 5.71874995,2.041016 v 4.699218 a 0.50005,0.50005 0 0 0 0.5,0.5 H 19.833984 l 16.652344,6.058594 a 0.50005,0.50005 0 0 0 0.642578,-0.302734 l 2.042969,-5.75586 h 4.636719 a 0.50005,0.50005 0 0 0 0.5,-0.498047 l 0.05469,-13.599609 6.107422,-16.779297 A 0.50005,0.50005 0 0 0 50.169922,12.892578 L 44.363281,10.789063 V 6.1308594 a 0.50005,0.50005 0 0 0 -0.5,-0.5 H 30.177734 L 13.513672,-0.46875 a 0.5,0.5 0 0 0 -0.002,0 0.5,0.5 0 0 0 -0.002,-0.001953 z m 0.134765,1.11328125 16.271485,5.95898438 a 0.50005,0.50005 0 0 0 0.171875,0.029297 h 13.27539 v 4.5097656 a 0.50005,0.50005 0 0 0 0.330078,0.46875 l 5.664063,2.052734 -5.964844,16.390625 a 0.50005,0.50005 0 0 0 -0.0293,0.169922 l -0.05273,13.189453 h -4.492188 a 0.50005,0.50005 0 0 0 -0.470703,0.332032 l -1.99414,5.613281 -16.259766,-5.916016 a 0.50005,0.50005 0 0 0 -0.171875,-0.0293 H 6.5507812 V 38.859375 A 0.50005,0.50005 0 0 0 6.21875,38.388672 L 0.64257812,36.400391 6.5742187,20.216797 a 0.50005,0.50005 0 0 0 0.029297,-0.171875 V 6.5996094 H 11.181641 A 0.50005,0.50005 0 0 0 11.652344,6.265625 Z"
       id="path2526" />
  </g>
  <defs
     id="defs31">
    <clipPath
       id="clip0_901_30842">
      <rect
         width="50"
         height="50"
         fill="white"
         id="rect28" />
    </clipPath>
  </defs>
</svg>
