<?xml version="1.0" encoding="UTF-8" standalone="no"?>
<svg
   viewBox="0 0 50 50"
   fill="none"
   version="1.1"
   id="svg33"
   sodipodi:docname="cid-outline-logo"
   inkscape:version="1.2.1 (0f2f062aeb, 2022-09-21, custom)"
   xmlns:inkscape="http://www.inkscape.org/namespaces/inkscape"
   xmlns:sodipodi="http://sodipodi.sourceforge.net/DTD/sodipodi-0.dtd"
   xmlns="http://www.w3.org/2000/svg"
   xmlns:svg="http://www.w3.org/2000/svg">
  <sodipodi:namedview
     id="namedview35"
     pagecolor="#505050"
     bordercolor="#eeeeee"
     borderopacity="1"
     inkscape:showpageshadow="0"
     inkscape:pageopacity="0"
     inkscape:pagecheckerboard="0"
     inkscape:deskcolor="#505050"
     showgrid="false"
     showguides="true"
     inkscape:zoom="12.96621"
     inkscape:cx="43.767609"
     inkscape:cy="13.419496"
     inkscape:window-width="1920"
     inkscape:window-height="1144"
     inkscape:window-x="0"
     inkscape:window-y="0"
     inkscape:window-maximized="1"
     inkscape:current-layer="g26" />
  <g
     clip-path="url(#clip0_901_30842)"
     id="g26">
    <path
       style="color:#000000;fill:#000000;stroke-linecap:round;stroke-linejoin:round;-inkscape-stroke:none"
       d="m 14.068359,1.3417969 a 0.10001,0.10001 0 0 0 -0.128906,0.060547 L 12.263672,6 6.1035156,5.9980469 A 0.1,0.1 0 0 0 6.0039062,6.0996094 V 23.164062 L 1.34375,35.943359 a 0.10001,0.10001 0 0 0 0.058594,0.128907 l 4.5996094,1.675781 0.00195,6.164062 a 0.10001,0.10001 0 0 0 0.099609,0.09961 H 23.195312 L 36.083984,48.375 a 0.10001,0.10001 0 0 0 0.126953,-0.06055 l 1.570313,-4.300781 6.027344,-0.002 a 0.10001,0.10001 0 0 0 0.101562,-0.09961 l -0.002,-16.6875 4.802734,-13.158203 a 0.10001,0.10001 0 0 0 -0.06055,-0.126953 l -4.742188,-1.728515 0.002,-6.1113286 A 0.10001,0.10001 0 0 0 43.808594,5.9980469 L 26.855469,6 Z m 0.02539,0.2226562 12.710937,4.6289063 16.96875,6.1816406 4.714844,1.71875 -4.773437,13.080078 -6.097657,16.705078 -1.560546,4.275391 -12.808594,-4.333985 -0.002,-0.002 h -0.002 L 6.1367187,37.583984 1.5644531,35.919922 6.1972656,23.214844 12.427734,6.1347656 Z M 6.2050781,6.1992187 H 12.189453 L 6.203125,22.615234 Z m 21.1992189,0 H 43.708984 V 12.138672 Z M 43.708984,27.771484 V 43.8125 H 37.853516 Z M 6.203125,37.820312 22.646484,43.8125 H 6.2050781 Z"
       id="path2384" />
    <g
       id="path22"
       inkscape:label="CID">
      <path
         style="color:#000000;fill:#000000;stroke-linecap:round;stroke-linejoin:round"
         d="m 26.199219,17.462891 a 0.10001,0.10001 0 0 0 -0.09375,0.06445 l -5.423828,14.886718 a 0.10001,0.10001 0 0 0 0.09375,0.134766 h 3.02539 a 0.10001,0.10001 0 0 0 0.09375,-0.06641 l 5.41211,-14.886719 a 0.10001,0.10001 0 0 0 -0.09375,-0.132812 z m 0.07031,0.199218 h 2.800781 l -5.339843,14.685547 h -2.8125 z"
         id="path1704" />
      <path
         style="color:#000000;fill:#000000;stroke-linecap:round;stroke-linejoin:round;-inkscape-stroke:none"
         d="m 17.798828,17.169922 c -2.14254,0.03251 -4.207582,0.803605 -5.847656,2.18164 -1.884278,1.502806 -3.2947193,3.515316 -4.0625001,5.798829 -0.8546065,2.367164 -0.8979859,4.251636 -0.099609,5.632812 a 0.1010101,0.1010101 0 0 0 0.00195,0.002 c 0.448227,0.704184 1.0827396,1.270206 1.8339844,1.634766 0.750051,0.36399 1.586306,0.514047 2.416016,0.43164 1.559206,0.0087 3.090547,-0.406217 4.43164,-1.201171 a 0.1010101,0.1010101 0 0 0 0.0039,-0.002 c 1.458916,-0.923162 2.683273,-2.173493 3.576172,-3.65039 A 0.1010101,0.1010101 0 0 0 20,27.851562 l -2.582031,-0.960937 a 0.1010101,0.1010101 0 0 0 -0.123047,0.04687 c -0.508464,0.931856 -1.222754,1.735833 -2.087891,2.351562 -0.670696,0.472377 -1.466688,0.733017 -2.287109,0.748047 a 0.1010101,0.1010101 0 0 0 -0.0059,0 c -0.418246,0.03161 -0.836387,-0.06025 -1.203125,-0.263672 -0.365513,-0.20265 -0.664989,-0.507254 -0.859375,-0.876953 v -0.002 c -0.354271,-0.750247 -0.228974,-2.090841 0.447265,-3.935547 a 0.1010101,0.1010101 0 0 0 0.002,-0.0059 c 0.446567,-1.46026 1.279517,-2.771701 2.41211,-3.796875 0.841884,-0.750854 1.928142,-1.171652 3.05664,-1.183594 a 0.1010101,0.1010101 0 0 0 0.0059,0 c 0.315761,-0.02265 0.63163,0.02451 0.927734,0.136719 0.294628,0.111782 0.560604,0.287024 0.78125,0.511719 0.195164,0.240684 0.33519,0.520759 0.40625,0.822265 0.0713,0.303031 0.07206,0.61818 0.0039,0.921875 a 0.1010101,0.1010101 0 0 0 0.121094,0.121094 l 3.240234,-0.734375 a 0.1010101,0.1010101 0 0 0 0.07813,-0.08203 c 0.148262,-0.963852 -0.04398,-1.951034 -0.542968,-2.789063 a 0.1010101,0.1010101 0 0 0 -0.0059,-0.0098 C 21.32228,18.268731 20.710873,17.796047 20.011719,17.498047 19.314462,17.200812 18.552447,17.088154 17.798828,17.169922 Z m 0.0078,0.201172 a 0.1010101,0.1010101 0 0 0 0.0098,0 c 0.721071,-0.07921 1.450053,0.02811 2.117188,0.3125 0.664199,0.283101 1.242608,0.733597 1.683593,1.304687 0.462027,0.777702 0.628122,1.691051 0.50586,2.585938 l -3.03125,0.6875 c 0.04473,-0.287359 0.06097,-0.581193 -0.0059,-0.865235 -0.0784,-0.332657 -0.231304,-0.643041 -0.447265,-0.908203 a 0.1010101,0.1010101 0 0 0 -0.0059,-0.0059 c -0.24176,-0.247191 -0.534018,-0.439801 -0.857421,-0.5625 -0.321668,-0.121897 -0.666663,-0.1722 -1.009766,-0.148438 h -0.0059 c -1.175201,0.01385 -2.304782,0.452329 -3.181641,1.234375 -1.158073,1.048238 -2.011076,2.390051 -2.46875,3.882813 -5.16e-4,0.0014 5.15e-4,0.0025 0,0.0039 -2.55e-4,8.33e-4 -0.0017,0.0011 -0.002,0.002 -0.682403,1.863856 -0.838321,3.241312 -0.4375,4.087891 a 0.1010101,0.1010101 0 0 0 0.002,0.0039 c 0.212662,0.406409 0.540158,0.742381 0.941406,0.964844 0.400125,0.221944 0.856242,0.320836 1.3125,0.287109 0.860109,-0.01614 1.695253,-0.287944 2.398438,-0.783203 a 0.1010101,0.1010101 0 0 0 0,-0.002 c 0.864933,-0.615585 1.567976,-1.425195 2.08789,-2.349609 l 2.390625,0.890625 c -0.870626,1.403216 -2.03863,2.600443 -3.435547,3.484375 -1.310321,0.775786 -2.808928,1.179497 -4.332031,1.169921 a 0.1010101,0.1010101 0 0 0 -0.0098,0.002 c -0.79381,0.07954 -1.594908,-0.06387 -2.3125004,-0.41211 -0.7167703,-0.34783 -1.3219519,-0.88708 -1.75,-1.558594 -5.037e-4,-7.9e-4 -0.00145,-0.0012 -0.00195,-0.002 C 7.2058613,29.368182 7.2344049,27.552787 8.078125,25.216797 a 0.1010101,0.1010101 0 0 0 0.00195,-0.002 c 0.7553977,-2.246683 2.1421759,-4.226487 3.9960939,-5.705078 a 0.1010101,0.1010101 0 0 0 0.002,-0.002 c 1.605796,-1.350032 3.630155,-2.105761 5.728516,-2.136718 z"
         id="path1710" />
      <path
         style="color:#000000;fill:#000000;stroke-linecap:round;stroke-linejoin:round"
         d="m 32.035156,17.462891 a 0.10001,0.10001 0 0 0 -0.09375,0.06641 l -5.402344,14.884765 a 0.10001,0.10001 0 0 0 0.09375,0.134766 h 5.648438 c 0.944342,0.02049 1.886667,-0.08623 2.802734,-0.316406 a 0.10001,0.10001 0 0 0 0.002,0 c 0.926473,-0.248976 1.803455,-0.656781 2.591797,-1.203125 a 0.10001,0.10001 0 0 0 0.002,0 c 0.997015,-0.736257 1.863483,-1.635157 2.5625,-2.658203 0.683273,-0.98135 1.227481,-2.0521 1.619141,-3.181641 v -0.0039 c 0.456569,-1.127815 0.729943,-2.320997 0.806641,-3.535156 0.05601,-0.85701 -0.126814,-1.713886 -0.529297,-2.472657 a 0.10001,0.10001 0 0 0 -0.002,-0.002 c -0.394814,-0.685447 -1.039743,-1.193912 -1.798828,-1.417969 a 0.10001,0.10001 0 0 0 -0.0039,0 c -0.908497,-0.228436 -1.843141,-0.328049 -2.779297,-0.294921 z m 0.07031,0.199218 h 5.449218 a 0.10001,0.10001 0 0 0 0.0039,0 c 0.916692,-0.03262 1.832971,0.06574 2.722656,0.289063 0.709003,0.209274 1.31038,0.682562 1.679687,1.322265 4.74e-4,8.21e-4 0.0015,0.0011 0.002,0.002 0.383711,0.725081 0.559356,1.542773 0.505859,2.361328 -0.07542,1.193962 -0.343606,2.367625 -0.792969,3.476562 a 0.10001,0.10001 0 0 0 -0.002,0.0059 c -0.385795,1.114321 -0.923699,2.170702 -1.597656,3.138671 -0.686381,1.004553 -1.536641,1.886433 -2.515625,2.609375 -0.768901,0.532506 -1.62386,0.929078 -2.527344,1.171875 -0.898137,0.225493 -1.82224,0.328686 -2.748047,0.308594 a 0.10001,0.10001 0 0 0 -0.002,0 h -5.507812 z m 2.068359,2.273438 A 0.10001,0.10001 0 0 0 34.080078,20 l -3.587891,9.855469 a 0.10001,0.10001 0 0 0 0.0957,0.134765 h 2.232421 c 0.6339,0.02255 1.268533,-0.0284 1.890625,-0.152343 0.532112,-0.09801 1.038654,-0.305486 1.486329,-0.609375 a 0.10001,0.10001 0 0 0 0.002,-0.002 c 0.522469,-0.386017 0.96737,-0.868493 1.310547,-1.419921 v -0.002 c 0.552481,-0.866882 0.999185,-1.795746 1.328125,-2.769531 0.33145,-0.866372 0.533026,-1.775999 0.599609,-2.701172 0.07257,-0.526788 -0.05258,-1.06206 -0.351563,-1.501953 a 0.10001,0.10001 0 0 0 0,-0.002 C 38.817195,20.441683 38.4057,20.175561 37.941406,20.087891 a 0.10001,0.10001 0 0 0 -0.002,0 C 37.141935,19.950186 36.33195,19.899262 35.523437,19.935547 Z m 0.07031,0.199219 h 1.279296 a 0.10001,0.10001 0 0 0 0.0059,0 c 0.795389,-0.03597 1.592357,0.01492 2.376953,0.15039 0.410657,0.07829 0.775319,0.315015 1.013672,0.658203 0.271881,0.400022 0.385232,0.886281 0.318359,1.365235 a 0.10001,0.10001 0 0 0 0,0.0078 c -0.0649,0.906909 -0.262998,1.799206 -0.58789,2.648438 a 0.10001,0.10001 0 0 0 -0.002,0.0039 c -0.324015,0.959647 -0.762079,1.876275 -1.30664,2.730469 -0.329918,0.530456 -0.759177,0.993939 -1.261719,1.365234 -0.423826,0.286965 -0.902805,0.483445 -1.40625,0.576172 -0.607493,0.121182 -1.228608,0.172415 -1.847656,0.150391 a 0.10001,0.10001 0 0 0 -0.002,0 h -2.09375 z"
         id="path1698" />
    </g>
  </g>
  <defs
     id="defs31">
    <clipPath
       id="clip0_901_30842">
      <rect
         width="50"
         height="50"
         fill="white"
         id="rect28" />
    </clipPath>
  </defs>
</svg>
