<?xml version="1.0" encoding="UTF-8" standalone="no"?>
<svg
   viewBox="0 0 50 50"
   fill="none"
   version="1.1"
   id="svg33"
   sodipodi:docname="cid-cookie-frame3.svg"
   inkscape:version="1.2.1 (0f2f062aeb, 2022-09-21, custom)"
   xmlns:inkscape="http://www.inkscape.org/namespaces/inkscape"
   xmlns:sodipodi="http://sodipodi.sourceforge.net/DTD/sodipodi-0.dtd"
   xmlns="http://www.w3.org/2000/svg"
   xmlns:svg="http://www.w3.org/2000/svg">
  <sodipodi:namedview
     id="namedview35"
     pagecolor="#505050"
     bordercolor="#eeeeee"
     borderopacity="1"
     inkscape:showpageshadow="0"
     inkscape:pageopacity="0"
     inkscape:pagecheckerboard="0"
     inkscape:deskcolor="#505050"
     showgrid="false"
     showguides="true"
     inkscape:zoom="18.015156"
     inkscape:cx="29.447427"
     inkscape:cy="11.71236"
     inkscape:window-width="1920"
     inkscape:window-height="1144"
     inkscape:window-x="0"
     inkscape:window-y="0"
     inkscape:window-maximized="1"
     inkscape:current-layer="g26" />
  <g
     clip-path="url(#clip0_901_30842)"
     id="g26">
    <path
       style="color:#000000;fill:#000000;stroke-linecap:round;stroke-linejoin:round;-inkscape-stroke:none"
       d="M 13.285156,-1.2988281 A 0.70006999,0.70006999 0 0 0 12.384766,-0.875 L 10.333984,4.9003906 H 5.6035156 A 0.70006999,0.70006999 0 0 0 4.9042969,5.5996094 V 19.832031 l -6.2050781,16.929688 a 0.70006999,0.70006999 0 0 0 0.42382807,0.90039 l 5.72851563,2.044922 v 4.705078 a 0.70006999,0.70006999 0 0 0 0.6992187,0.699219 H 19.710937 l 17.007813,6.189453 a 0.70006999,0.70006999 0 0 0 0.900391,-0.423828 l 2.046875,-5.765625 h 4.640625 a 0.70006999,0.70006999 0 0 0 0.699218,-0.697266 L 45.0625,30.439453 51.298828,13.304688 A 0.70006999,0.70006999 0 0 0 50.878906,12.40625 L 45.0625,10.298828 V 5.6308594 A 0.70006999,0.70006999 0 0 0 44.363281,4.9316406 H 30.306641 Z M 13.46875,0.25976563 29.9375,6.2890625 a 0.69999999,0.69999999 0 0 0 0.06641,-0.03125 0.69999999,0.69999999 0 0 0 0.173828,0.072266 H 43.664062 V 10.789063 A 0.70006999,0.70006999 0 0 0 44.125,11.447266 l 5.617187,2.037109 -6.037109,16.589844 a 0.70006999,0.70006999 0 0 0 -0.04102,0.238281 l -0.05469,13.400391 h -4.4375 a 0.70006999,0.70006999 0 0 0 -0.660156,0.464843 l -1.976563,5.564453 -16.460937,-5.988281 a 0.70006999,0.70006999 0 0 0 -0.240235,-0.04102 H 6.25 v -4.5 A 0.70006999,0.70006999 0 0 0 5.7851562,38.552734 L 0.2578125,36.580078 6.2617187,20.197266 a 0.70006999,0.70006999 0 0 0 0.041016,-0.240235 V 6.2988281 h 4.5253906 a 0.70006999,0.70006999 0 0 0 0.660156,-0.4648437 z"
       id="path5680" />
  </g>
  <defs
     id="defs31">
    <clipPath
       id="clip0_901_30842">
      <rect
         width="50"
         height="50"
         fill="white"
         id="rect28" />
    </clipPath>
  </defs>
</svg>
