<?xml version="1.0" encoding="UTF-8" standalone="no"?>
<svg
   viewBox="0 0 50 50"
   fill="none"
   version="1.1"
   id="svg33"
   sodipodi:docname="cid-cookie-frame2.svg"
   inkscape:version="1.2.1 (0f2f062aeb, 2022-09-21, custom)"
   xmlns:inkscape="http://www.inkscape.org/namespaces/inkscape"
   xmlns:sodipodi="http://sodipodi.sourceforge.net/DTD/sodipodi-0.dtd"
   xmlns="http://www.w3.org/2000/svg"
   xmlns:svg="http://www.w3.org/2000/svg">
  <sodipodi:namedview
     id="namedview35"
     pagecolor="#505050"
     bordercolor="#eeeeee"
     borderopacity="1"
     inkscape:showpageshadow="0"
     inkscape:pageopacity="0"
     inkscape:pagecheckerboard="0"
     inkscape:deskcolor="#505050"
     showgrid="false"
     showguides="true"
     inkscape:zoom="18.015156"
     inkscape:cx="16.125311"
     inkscape:cy="18.373418"
     inkscape:window-width="1920"
     inkscape:window-height="1144"
     inkscape:window-x="0"
     inkscape:window-y="0"
     inkscape:window-maximized="1"
     inkscape:current-layer="g26" />
  <g
     clip-path="url(#clip0_901_30842)"
     id="g26">
    <path
       style="color:#000000;fill:#000000;stroke-linecap:square;-inkscape-stroke:none"
       d="m 13.044922,-0.640625 -0.002,0.003906 -0.0039,-0.001953 -0.16211,0.45507812 -0.0059,0.0175781 -0.169922,0.46289062 0.0059,0.001953 -1.878906,5.30078127 H 5.6035156 V 19.957031 l -6.24609372,17.044922 6.19335932,2.210938 v 5.199218 H 19.833984 l 17.125,6.230469 2.212891,-6.230469 h 5.134766 l 0.05664,-14.097656 6.277344,-17.25 -6.277344,-2.27539 V 5.6308594 H 30.177734 l -16.199218,-5.92968753 0.002,-0.005859 -0.595703,-0.2109375 z M 13.646484,0.64257812 30,6.6308594 h 13.363281 v 4.8593746 l 5.994141,2.171875 -5.994141,16.472657 -0.05273,13.277343 h -4.845703 l -2.111328,5.945313 -16.34375,-5.945313 H 6.5507812 V 38.507812 L 0.64257812,36.400391 6.6035156,20.134766 V 6.5996094 h 4.9316404 z"
       id="path2526" />
  </g>
  <defs
     id="defs31">
    <clipPath
       id="clip0_901_30842">
      <rect
         width="50"
         height="50"
         fill="white"
         id="rect28" />
    </clipPath>
  </defs>
</svg>
