<?xml version="1.0" encoding="UTF-8" standalone="no"?>
<svg
   viewBox="0 0 50 50"
   fill="none"
   version="1.1"
   id="svg33"
   sodipodi:docname="cid-cookie-frame.svg"
   inkscape:version="1.2.1 (0f2f062aeb, 2022-09-21, custom)"
   xmlns:inkscape="http://www.inkscape.org/namespaces/inkscape"
   xmlns:sodipodi="http://sodipodi.sourceforge.net/DTD/sodipodi-0.dtd"
   xmlns="http://www.w3.org/2000/svg"
   xmlns:svg="http://www.w3.org/2000/svg">
  <sodipodi:namedview
     id="namedview35"
     pagecolor="#505050"
     bordercolor="#eeeeee"
     borderopacity="1"
     inkscape:showpageshadow="0"
     inkscape:pageopacity="0"
     inkscape:pagecheckerboard="0"
     inkscape:deskcolor="#505050"
     showgrid="false"
     showguides="true"
     inkscape:zoom="18.015156"
     inkscape:cx="29.447427"
     inkscape:cy="11.71236"
     inkscape:window-width="1920"
     inkscape:window-height="1144"
     inkscape:window-x="0"
     inkscape:window-y="0"
     inkscape:window-maximized="1"
     inkscape:current-layer="g26" />
  <g
     clip-path="url(#clip0_901_30842)"
     id="g26">
    <path
       style="color:#000000;fill:#000000;stroke-linecap:round;-inkscape-stroke:none"
       d="M 12.802734,-1.1542969 10.544922,5.1992187 H 5.203125 V 19.886719 L -1.15625,37.242187 5.1503906,39.494141 V 44.8125 H 19.763672 l 17.4375,6.34375 2.253906,-6.34375 h 5.25 l 0.05859,-14.425781 6.390625,-17.5625 -6.390625,-2.316406 V 5.2304687 H 30.244141 Z m 0.484375,1.02734378 16.753907,6.13281252 a 0.40000001,0.40000001 0 0 0 0.06836,-0.00195 0.40000001,0.40000001 0 0 0 0.06836,0.027344 h 13.785157 v 5.039063 l 6.166015,2.234375 -6.166015,16.937499 -0.05469,13.769532 h -5.019531 l -2.171875,6.117187 -16.8125,-6.117187 H 5.9511719 V 38.931641 L -0.12890625,36.759766 6.0039062,20.027344 V 6 h 5.1074218 z"
       id="path5680" />
  </g>
  <defs
     id="defs31">
    <clipPath
       id="clip0_901_30842">
      <rect
         width="50"
         height="50"
         fill="white"
         id="rect28" />
    </clipPath>
  </defs>
</svg>
