<?xml version="1.0" encoding="UTF-8" standalone="no"?>
<!-- Created with Inkscape (http://www.inkscape.org/) -->

<svg
   width="210mm"
   height="297mm"
   viewBox="0 0 210 297"
   version="1.1"
   id="svg5"
   sodipodi:docname="fmbi.svg"
   inkscape:version="1.1.2 (08b2f3d93c, 2022-04-05)"
   xmlns:inkscape="http://www.inkscape.org/namespaces/inkscape"
   xmlns:sodipodi="http://sodipodi.sourceforge.net/DTD/sodipodi-0.dtd"
   xmlns="http://www.w3.org/2000/svg"
   xmlns:svg="http://www.w3.org/2000/svg">
  <sodipodi:namedview
     id="namedview7"
     pagecolor="#505050"
     bordercolor="#eeeeee"
     borderopacity="1"
     inkscape:pageshadow="0"
     inkscape:pageopacity="0"
     inkscape:pagecheckerboard="0"
     inkscape:document-units="mm"
     showgrid="true"
     inkscape:zoom="4.9318715"
     inkscape:cx="113.24302"
     inkscape:cy="1051.9333"
     inkscape:window-width="1920"
     inkscape:window-height="1136"
     inkscape:window-x="0"
     inkscape:window-y="27"
     inkscape:window-maximized="1"
     inkscape:current-layer="g30637"
     inkscape:snap-bbox="true"
     inkscape:snap-bbox-midpoints="false"
     inkscape:bbox-nodes="true"
     inkscape:snap-page="true"
     inkscape:snap-grids="false"
     showguides="true"
     inkscape:guide-bbox="true">
    <inkscape:grid
       type="xygrid"
       id="grid12664" />
    <sodipodi:guide
       position="0,0"
       orientation="-0.70710678,0.70710678"
       id="guide6159"
       inkscape:label=""
       inkscape:locked="false"
       inkscape:color="rgb(0,0,255)" />
    <sodipodi:guide
       position="-28.587,40"
       orientation="0,1"
       id="guide6161"
       inkscape:label=""
       inkscape:locked="false"
       inkscape:color="rgb(0,0,255)" />
    <sodipodi:guide
       position="0,40"
       orientation="0.70710678,0.70710678"
       id="guide6243"
       inkscape:label=""
       inkscape:locked="false"
       inkscape:color="rgb(0,0,255)" />
    <sodipodi:guide
       position="39.999999,40.000001"
       orientation="1,0"
       id="guide6327" />
  </sodipodi:namedview>
  <defs
     id="defs2">
    <inkscape:path-effect
       effect="offset"
       id="path-effect30670"
       is_visible="true"
       lpeversion="1"
       linejoin_type="miter"
       unit="mm"
       offset="0.2"
       miter_limit="4"
       attempt_force_join="false"
       update_on_knot_move="true" />
    <rect
       x="0"
       y="971.33858"
       width="151.1811"
       height="151.1811"
       id="rect30639" />
    <rect
       x="0"
       y="971.33858"
       width="151.1811"
       height="151.1811"
       id="rect30641" />
  </defs>
  <g
     inkscape:groupmode="layer"
     id="g30637"
     inkscape:label="FMBI path"
     style="display:inline">
    <g
       aria-label="FMBI"
       transform="matrix(0.26458333,0,0,0.26458333,0,0.43384925)"
       id="text30635"
       style="font-size:46.6667px;line-height:156.094px;font-family:'Trajan Pro';-inkscape-font-specification:'Trajan Pro';text-align:center;text-anchor:middle;white-space:pre;shape-inside:url(#rect30641)">
      <path
         d="m 35.785156,1024.7832 c -0.437735,0 -0.707385,0.2567 -0.892578,0.3184 -0.293025,0.098 -0.956784,0.1014 -1.847656,0.1484 -0.986948,0.043 -10.614487,0.086 -11.410156,0.047 l -1.916016,-0.094 c -1.040798,-0.048 -2.321221,-0.047 -3.394531,-0.047 -0.655527,0 -1.501953,0.1949 -1.501953,1.129 0,0.7214 0.67089,1.0371 1.128906,1.0371 0.392583,0 1.12258,0.047 1.402344,0.1172 l 0.01367,0 0.01367,0 c 1.080008,0.2291 1.330478,0.6123 1.410157,1.9668 0.09159,1.4655 0.08984,2.7531 0.08984,10.0332 v 8.2129 c 0,4.4757 -4.8e-4,8.1212 -0.226562,10.0273 -0.181196,1.3099 -0.380476,1.8515 -0.751953,1.9258 h -0.0078 l -0.0078,0 c -0.403481,0.089 -0.87302,0.1699 -1.236328,0.1699 -0.624725,0 -1.128907,0.4346 -1.128907,1.0352 0,0.928 0.847393,1.1289 1.501954,1.1289 1.425304,0 4.492714,-0.1407 4.574218,-0.1407 0.08151,0 3.159764,0.1407 5.740235,0.1407 0.684639,0 1.501953,-0.2673 1.501953,-1.1289 0,-0.6005 -0.504183,-1.0352 -1.128906,-1.0352 -0.363669,0 -1.359263,-0.09 -2,-0.1816 -0.858264,-0.1145 -1.038284,-0.641 -1.167969,-1.8946 v -0.01 l -0.002,-0.01 c -0.226772,-1.9049 -0.228516,-5.5572 -0.228516,-10.0371 v -3.623 c 1.214899,0 5.553832,0.011 6.521484,0.1269 1.185082,0.1529 1.676961,0.8151 1.808594,1.1777 0.161911,0.4915 0.194801,1.034 0.242188,1.5079 l -0.0039,-0.076 c 0,0.5148 0.296524,1.1758 1.083985,1.1758 1.091626,0 1.082031,-1.2232 1.082031,-1.6426 0,-0.2541 0.09207,-2.143 0.183594,-3.0586 0.137635,-1.514 0.376953,-2.1919 0.376953,-2.6816 0,-0.404 -0.178472,-1.129 -0.990234,-1.129 -0.580649,0 -0.940755,0.5466 -1.103516,0.75 l -0.01758,0.022 -0.01367,0.021 c -0.216368,0.3126 -0.518286,0.4271 -1.580078,0.5156 -0.626313,0.045 -1.251464,0.045 -2.050782,0.045 l -5.539062,0.043 v -12.291 l 6.832031,0.1328 c 1.651385,0.043 2.375472,0.768 2.507813,1.0547 0.247547,0.5364 0.349609,1.1781 0.349609,1.457 0,0.5057 0.216983,1.3165 1.082031,1.3165 0.819787,0 1.053977,-0.8148 1.115235,-1.1211 l 0.002,-0.012 0.002,-0.012 c 0.111167,-0.667 0.20002,-2.7226 0.240234,-3.125 0.136487,-1.2738 0.376953,-1.767 0.376953,-2.2734 0,-0.4584 -0.281769,-1.1758 -1.035156,-1.1758 z"
         id="path30643" />
      <path
         d="m 48.898438,1024.502 c -0.872398,0 -1.204981,0.8603 -1.265626,1.5273 v -0.014 l -3.361328,30.4297 c -0.188421,1.79 -0.337212,3.0434 -1.248046,3.209 l -0.0078,0 h -0.0059 c -0.634115,0.1269 -0.880037,0.127 -1.251954,0.127 -0.388563,0 -1.222656,0.1932 -1.222656,0.9883 0,0.9874 0.949925,1.1758 1.548828,1.1758 1.288118,0 3.584271,-0.1407 3.919922,-0.1407 0.27844,0 2.59266,0.1407 4.339844,0.1407 0.688013,0 1.595703,-0.1884 1.595703,-1.1758 0,-0.727 -0.723972,-0.9883 -1.128906,-0.9883 -0.236716,0 -0.842311,-0.037 -1.601563,-0.2148 l -0.01172,-0 -0.01172,-0 c -0.356069,-0.071 -0.605469,-0.3758 -0.605469,-0.7051 0,-0.7872 8.99e-4,-1.598 0.04492,-2.3144 l 1.652344,-19.1602 c 1.540311,3.3968 4.749106,10.3166 5.130859,11.0801 0.229113,0.4582 4.245348,8.5361 5.46875,10.8418 0.885498,1.6778 1.246875,2.5488 2.113281,2.5488 0.98612,0 1.248717,-0.8615 2.22461,-2.9062 l 10.36914,-22.0098 2.007813,21.5762 v 0.01 c 0.03427,0.3084 0.04769,0.5969 0.03906,0.8301 -0.0013,0.034 -0.0038,0.065 -0.0059,0.096 -0.0019,0.027 -0.0034,0.054 -0.0059,0.078 -0.0021,0.02 -0.0055,0.038 -0.0078,0.055 -0.296293,0.1725 -0.537109,0.4237 -0.537109,0.8652 0,0.8947 0.851186,1.1206 2.001953,1.2207 1.765607,0.1432 6.794614,0.2813 7.855469,0.2813 0.674091,0 1.734375,-0.2132 1.734375,-1.1758 0,-0.8113 -0.732102,-0.9883 -1.128907,-0.9883 -0.465711,0 -1.572661,-0.01 -2.802734,-0.3867 -1.528095,-0.5024 -1.812788,-2.6393 -1.998047,-4.3067 l -3.126953,-28.6523 c -0.10022,-0.9522 -0.320333,-1.9355 -1.3125,-1.9355 -0.816998,0 -1.188165,0.7417 -1.390625,1.1972 l -13.042969,27.8574 -13.578125,-27.9101 c -0.275619,-0.6063 -0.683996,-1.1445 -1.386718,-1.1445 z"
         id="path30645" />
      <path
         d="m 92.951172,1025.1562 c -0.655526,0 -1.501953,0.1949 -1.501953,1.129 0,0.7214 0.67634,1.0351 1.128906,1.0351 0.391445,0 1.121408,0.049 1.402344,0.1192 l 0.01367,0 0.01367,0 c 1.079724,0.229 1.328444,0.6109 1.408204,1.9668 0.09157,1.4652 0.0918,2.7532 0.0918,10.0332 v 8.2129 c 0,4.4757 -4.8e-4,8.1212 -0.226562,10.0273 -0.181196,1.3099 -0.380476,1.8515 -0.751953,1.9258 h -0.0078 l -0.0078,0 c -0.403482,0.089 -0.873021,0.1699 -1.236328,0.1699 -0.624725,0 -1.128906,0.4346 -1.128906,1.0352 0,0.928 0.847393,1.1289 1.501953,1.1289 0.733728,0 1.798993,-0.094 2.707031,-0.094 h 0.01758 0.01953 c 0.959217,-0.046 1.736171,-0.047 1.830078,-0.047 0.122416,0 1.447424,0.046 2.792971,0.1387 l 0.0137,0 h 0.0137 c 1.34558,0.047 2.82745,0.1406 3.38672,0.1406 8.34805,0 12.6543,-5.4914 12.6543,-10.9297 0,-5.3733 -4.09474,-8.7016 -7.61719,-10.123 1.97276,-2.0897 3.93164,-4.3823 3.93164,-8.1231 0,-2.787 -2.0524,-7.7559 -10.08984,-7.7559 -2.16295,0 -3.997143,0.1387 -5.085941,0.1387 -0.08356,0 -3.156794,-0.1387 -5.273437,-0.1387 z m 9.845708,2.8184 c 4.03003,0 5.54492,3.663 5.54492,7.2695 0,1.7406 -0.6336,3.2356 -1.49219,4.2168 -0.74026,0.846 -1.10918,0.9551 -3.67773,0.9551 -1.47872,0 -2.06522,-0.1023 -2.41797,-0.1582 v -12.0762 c 0.68327,-0.1683 1.55538,-0.207 2.04297,-0.207 z m -2.04297,15.2246 c 0.93769,0 2.648,0.013 3.04882,0.074 h 0.0117 l 0.01,0 c 1.12494,0.1406 2.13362,0.2739 3.53906,1.2246 3.32965,2.2919 4.19922,6.0764 4.19922,8.7109 0,4.7883 -3.6426,5.8711 -5.82422,5.8711 -0.81234,0 -2.64644,-0.078 -3.77734,-0.623 -1.03103,-0.4989 -1.02048,-0.6986 -1.16211,-3.0117 -0.0375,-0.5622 -0.0449,-6.4359 -0.0449,-10.0293 z"
         id="path30647" />
      <path
         d="m 124.87109,1025.1562 c -0.65552,0 -1.50195,0.1949 -1.50195,1.129 0,0.7214 0.67634,1.0351 1.12891,1.0351 0.28971,0 0.78424,0.035 1.24609,0.1602 l 0.0156,0.01 0.0156,0 c 0.55786,0.1268 0.9202,0.534 1.00195,1.9238 0.0915,1.4652 0.0918,2.7532 0.0918,10.0332 v 8.2129 c 0,4.4756 -0.002,8.1209 -0.22852,10.0273 -0.18118,1.3099 -0.38048,1.8515 -0.75195,1.9258 h -0.008 l -0.008,0 c -0.40348,0.089 -0.87302,0.1699 -1.23633,0.1699 -0.62473,0 -1.12891,0.4346 -1.12891,1.0352 0,0.928 0.8474,1.1289 1.50196,1.1289 1.4253,0 4.4927,-0.1407 4.57421,-0.1407 0.0815,0 3.15977,0.1407 5.74024,0.1407 0.68464,0 1.50195,-0.2673 1.50195,-1.1289 0,-0.6003 -0.50419,-1.0352 -1.1289,-1.0352 -0.36367,0 -1.35926,-0.09 -2,-0.1816 -0.85827,-0.1145 -1.03829,-0.641 -1.16797,-1.8946 v -0.01 l -0.002,-0.01 c -0.22674,-1.9046 -0.22656,-5.557 -0.22656,-10.0371 v -8.2129 c 0,-7.2801 -0.002,-8.5676 0.0898,-10.0371 0.0832,-1.4572 0.33132,-1.8149 1.10938,-1.959 0.54475,-0.09 0.7768,-0.1289 1.03125,-0.1289 0.45142,0 1.12891,-0.3145 1.12891,-1.0351 0,-0.9281 -0.84724,-1.129 -1.50196,-1.129 -1.42496,0 -4.49067,0.1387 -4.57422,0.1387 -0.0836,0 -3.15019,-0.1387 -4.71289,-0.1387 z"
         id="path30649" />
    </g>
    <text
       xml:space="preserve"
       transform="scale(0.26458333)"
       id="text30631"
       style="font-size:45.3333px;line-height:3.85;font-family:'Trajan Pro';-inkscape-font-specification:'Trajan Pro';text-align:center;white-space:pre;shape-inside:url(#rect30639)"
       x="51.639908"
       y="0"><tspan
         x="0"
         y="1221.1195"
         id="tspan30952"><tspan
           dx="0 26.837271 47.59993 30.463844"
           id="tspan30950">FMBI</tspan></tspan></text>
  </g>
</svg>
